<?xml version="1.0" encoding="utf-8"?>
<!-- Generator: Adobe Illustrator 25.0.0, SVG Export Plug-In . SVG Version: 6.00 Build 0)  -->
<svg version="1.1" id="Layer_1" xmlns="http://www.w3.org/2000/svg" xmlns:xlink="http://www.w3.org/1999/xlink" x="0px" y="0px"
	 viewBox="0 0 1024 1024" style="enable-background:new 0 0 1024 1024;" xml:space="preserve">
<style type="text/css">
	.st0{fill:#FFFFFF;}
</style>
<g>
	<path class="st0" d="M741.4,396.1H619.2V272.6c-0.5-19-15.4-34.4-34.3-35.5H418.4c-19.3,1-34.7,16.3-35.9,35.5v123.5H262
		c-18.5-0.2-33.9,14.3-34.8,32.9v165.7c0.5,19.6,15.3,35.9,34.8,38.2h120.5v118.2c1,19.6,16.3,35.4,35.9,37.2h165.7
		c19.4-1.8,34.5-17.7,35.2-37.2V632.9h121.2c18.2,0,34.2-20,34.2-38.2V429C774.3,410.8,759.5,396.2,741.4,396.1z M730.2,588.5H598
		c-11.6,0.1-21.4,8.6-23.1,20.1v139h-148v-139c-1.3-11.4-10.9-20-22.3-20.1H267.8V436.8h136.8c11.7-0.8,21.1-9.9,22.3-21.6V277.8
		h148v137.5c1.5,11.8,11.2,20.8,23.1,21.6h132.3L730.2,588.5z"/>
	<path class="st0" d="M971.9,721.6c-5-5.2-10.3-10-16-14.5c107.7-250.9-8.4-541.7-259.3-649.4C445.7-50,154.9,66.1,47.2,317
		c-107.7,250.9,8.4,541.7,259.3,649.4c140.1,60.2,300.2,52.3,433.7-21.3c61.7,64,163.6,65.8,227.6,4.1S1033.6,785.6,971.9,721.6z
		 M707.7,770.5c-19.1,45.2-16.6,96.7,6.9,139.8c-65.6,35.1-138.8,53.4-213.2,53.3c-249-0.4-450.5-202.6-450-451.6
		c0.4-249,202.6-450.5,451.6-450.1c249,0.4,450.5,202.6,450.1,451.6c-0.1,58.8-11.7,117-34.2,171.4
		C836.9,650.2,742.4,688.6,707.7,770.5z M957.6,800.2L843.9,911.3l-4,3.9c-6.5,4.5-15.2,4-21.1-1.3l-2-2l-8.3-8.7l-29.7-31.2
		l-15-15.7c-8.2-7.9-8.4-20.9-0.6-29.1c7.9-8.2,20.9-8.4,29.1-0.6c0.4,0.4,0.8,0.9,1.2,1.3l16,16.8l21,22.1l81.7-79.9l16.5-16.1
		c8.1-7.9,21.1-7.8,29.1,0.3C965.9,779.2,965.7,792.2,957.6,800.2L957.6,800.2z"/>
</g>
</svg>
